<svg xmlns="http://www.w3.org/2000/svg" viewBox="0 0 298 488" role="img" aria-labelledby="title desc">
  <title id="title">JOJO logo</title>
  <desc id="desc">A transparent vector extraction of the JOJO letter mark, recolored to match the retro interface palette.</desc>
  <path fill="#6f3328" opacity="0.46" d="M203 64H216V65H203Z M196 65H223V66H196Z M64 66H120V67H64Z M192 66H227V67H192Z M62 67H122V68H62Z M189 67H230V68H189Z M62 68H122V69H62Z M186 68H233V69H186Z M62 69H122V70H62Z M184 69H235V70H184Z M62 70H122V71H62Z M182 70H237V71H182Z M62 71H122V72H62Z M180 71H239V72H180Z M62 72H122V73H62Z M178 72H241V73H178Z M62 73H122V74H62Z M177 73H243V74H177Z M62 74H122V75H62Z M175 74H245V75H175Z M62 75H122V76H62Z M174 75H246V76H174Z M62 76H122V77H62Z M172 76H247V77H172Z M62 77H122V78H62Z M171 77H248V78H171Z M62 78H122V79H62Z M170 78H250V79H170Z M62 79H122V80H62Z M169 79H251V80H169Z M62 80H122V81H62Z M167 80H252V81H167Z M62 81H122V82H62Z M166 81H253V82H166Z M62 82H122V83H62Z M165 82H254V83H165Z M62 83H122V84H62Z M164 83H255V84H164Z M62 84H122V85H62Z M163 84H256V85H163Z M62 85H122V86H62Z M162 85H257V86H162Z M62 86H122V87H62Z M161 86H258V87H161Z M62 87H122V88H62Z M161 87H259V88H161Z M62 88H122V89H62Z M160 88H260V89H160Z M62 89H122V90H62Z M159 89H261V90H159Z M62 90H122V91H62Z M158 90H261V91H158Z M63 91H122V92H63Z M157 91H262V92H157Z M92 92H122V93H92Z M156 92H205V93H156Z M214 92H263V93H214Z M93 93H122V94H93Z M156 93H201V94H156Z M218 93H263V94H218Z M93 94H122V95H93Z M155 94H197V95H155Z M222 94H264V95H222Z M93 95H122V96H93Z M155 95H195V96H155Z M224 95H265V96H224Z M93 96H122V97H93Z M154 96H193V97H154Z M227 96H265V97H227Z M93 97H122V98H93Z M154 97H191V98H154Z M228 97H266V98H228Z M93 98H122V99H93Z M153 98H189V99H153Z M230 98H266V99H230Z M93 99H122V100H93Z M153 99H188V100H153Z M231 99H267V100H231Z M93 100H122V101H93Z M152 100H187V101H152Z M232 100H267V101H232Z M93 101H122V102H93Z M152 101H186V102H152Z M234 101H268V102H234Z M93 102H122V103H93Z M151 102H185V103H151Z M235 102H268V103H235Z M93 103H122V104H93Z M151 103H184V104H151Z M236 103H269V104H236Z M93 104H122V105H93Z M150 104H183V105H150Z M237 104H269V105H237Z M93 105H122V106H93Z M150 105H182V106H150Z M237 105H269V106H237Z M93 106H122V107H93Z M150 106H181V107H150Z M238 106H270V107H238Z M93 107H122V108H93Z M149 107H180V108H149Z M239 107H270V108H239Z M93 108H122V109H93Z M149 108H180V109H149Z M240 108H271V109H240Z M93 109H122V110H93Z M148 109H179V110H148Z M240 109H271V110H240Z M93 110H122V111H93Z M148 110H179V111H148Z M241 110H271V111H241Z M93 111H122V112H93Z M148 111H178V112H148Z M241 111H271V112H241Z M93 112H122V113H93Z M148 112H178V113H148Z M242 112H272V113H242Z M93 113H122V114H93Z M148 113H177V114H148Z M242 113H272V114H242Z M93 114H122V115H93Z M147 114H176V115H147Z M243 114H272V115H243Z M93 115H122V116H93Z M147 115H176V116H147Z M243 115H272V116H243Z M93 116H122V117H93Z M147 116H176V117H147Z M243 116H273V117H243Z M93 117H122V118H93Z M146 117H176V118H146Z M244 117H273V118H244Z M93 118H122V119H93Z M146 118H175V119H146Z M244 118H273V119H244Z M93 119H122V120H93Z M146 119H175V120H146Z M245 119H273V120H245Z M93 120H122V121H93Z M146 120H175V121H146Z M245 120H273V121H245Z M93 121H122V122H93Z M146 121H174V122H146Z M245 121H273V122H245Z M93 122H122V123H93Z M146 122H174V123H146Z M245 122H273V123H245Z M93 123H122V124H93Z M146 123H174V124H146Z M245 123H273V124H245Z M93 124H122V125H93Z M146 124H174V125H146Z M245 124H274V125H245Z M93 125H122V126H93Z M146 125H174V126H146Z M245 125H274V126H245Z M93 126H122V127H93Z M146 126H174V127H146Z M245 126H274V127H245Z M93 127H122V128H93Z M146 127H174V128H146Z M245 127H274V128H245Z M93 128H122V129H93Z M146 128H174V129H146Z M245 128H274V129H245Z M93 129H122V130H93Z M146 129H174V130H146Z M245 129H274V130H245Z M93 130H122V131H93Z M146 130H174V131H146Z M245 130H274V131H245Z M93 131H122V132H93Z M146 131H174V132H146Z M245 131H274V132H245Z M93 132H122V133H93Z M146 132H174V133H146Z M245 132H273V133H245Z M93 133H122V134H93Z M146 133H174V134H146Z M245 133H273V134H245Z M93 134H122V135H93Z M146 134H174V135H146Z M245 134H273V135H245Z M93 135H122V136H93Z M146 135H175V136H146Z M245 135H273V136H245Z M93 136H122V137H93Z M146 136H175V137H146Z M245 136H273V137H245Z M93 137H122V138H93Z M146 137H175V138H146Z M244 137H273V138H244Z M93 138H122V139H93Z M146 138H176V139H146Z M244 138H273V139H244Z M93 139H122V140H93Z M147 139H176V140H147Z M243 139H273V140H243Z M93 140H122V141H93Z M147 140H176V141H147Z M243 140H272V141H243Z M93 141H122V142H93Z M147 141H176V142H147Z M243 141H272V142H243Z M93 142H122V143H93Z M148 142H177V143H148Z M243 142H272V143H243Z M93 143H122V144H93Z M148 143H177V144H148Z M242 143H272V144H242Z M93 144H122V145H93Z M148 144H178V145H148Z M241 144H271V145H241Z M93 145H122V146H93Z M148 145H178V146H148Z M241 145H271V146H241Z M93 146H122V147H93Z M148 146H179V147H148Z M240 146H271V147H240Z M93 147H122V148H93Z M148 147H180V148H148Z M240 147H271V148H240Z M93 148H122V149H93Z M149 148H180V149H149Z M239 148H270V149H239Z M93 149H122V150H93Z M150 149H181V150H150Z M238 149H270V150H238Z M93 150H122V151H93Z M150 150H182V151H150Z M237 150H269V151H237Z M93 151H122V152H93Z M150 151H183V152H150Z M237 151H269V152H237Z M93 152H122V153H93Z M150 152H183V153H150Z M236 152H269V153H236Z M93 153H122V154H93Z M151 153H184V154H151Z M235 153H268V154H235Z M93 154H122V155H93Z M152 154H185V155H152Z M234 154H268V155H234Z M93 155H122V156H93Z M152 155H187V156H152Z M233 155H267V156H233Z M93 156H122V157H93Z M152 156H188V157H152Z M231 156H267V157H231Z M93 157H122V158H93Z M153 157H189V158H153Z M230 157H266V158H230Z M93 158H122V159H93Z M153 158H191V159H153Z M228 158H266V159H228Z M93 159H122V160H93Z M154 159H193V160H154Z M227 159H265V160H227Z M93 160H122V161H93Z M155 160H194V161H155Z M225 160H265V161H225Z M93 161H122V162H93Z M155 161H198V162H155Z M222 161H264V162H222Z M93 162H122V163H93Z M156 162H200V163H156Z M220 162H263V163H220Z M93 163H122V164H93Z M156 163H208V164H156Z M211 163H263V164H211Z M93 164H122V165H93Z M157 164H262V165H157Z M93 165H122V166H93Z M158 165H261V166H158Z M93 166H122V167H93Z M159 166H260V167H159Z M93 167H122V168H93Z M160 167H260V168H160Z M93 168H122V169H93Z M161 168H259V169H161Z M93 169H122V170H93Z M161 169H258V170H161Z M93 170H122V171H93Z M162 170H257V171H162Z M93 171H122V172H93Z M163 171H256V172H163Z M93 172H122V173H93Z M164 172H255V173H164Z M93 173H122V174H93Z M165 173H254V174H165Z M93 174H122V175H93Z M166 174H253V175H166Z M93 175H122V176H93Z M167 175H252V176H167Z M93 176H122V177H93Z M168 176H251V177H168Z M93 177H122V178H93Z M169 177H250V178H169Z M93 178H122V179H93Z M171 178H248V179H171Z M93 179H122V180H93Z M172 179H247V180H172Z M93 180H122V181H93Z M173 180H246V181H173Z M93 181H122V182H93Z M175 181H245V182H175Z M93 182H122V183H93Z M176 182H243V183H176Z M93 183H122V184H93Z M178 183H241V184H178Z M93 184H122V185H93Z M180 184H240V185H180Z M93 185H122V186H93Z M182 185H237V186H182Z M93 186H122V187H93Z M183 186H236V187H183Z M93 187H122V188H93Z M186 187H233V188H186Z M93 188H122V189H93Z M189 188H231V189H189Z M93 189H122V190H93Z M192 189H227V190H192Z M93 190H122V191H93Z M195 190H224V191H195Z M93 191H122V192H93Z M202 191H217V192H202Z M93 192H122V193H93Z M93 193H122V194H93Z M92 194H122V195H92Z M92 195H121V196H92Z M92 196H121V197H92Z M91 197H121V198H91Z M91 198H121V199H91Z M91 199H121V200H91Z M90 200H120V201H90Z M89 201H120V202H89Z M89 202H120V203H89Z M88 203H120V204H88Z M87 204H120V205H87Z M86 205H120V206H86Z M85 206H119V207H85Z M84 207H119V208H84Z M81 208H118V209H81Z M79 209H118V210H79Z M70 210H118V211H70Z M50 211H117V212H50Z M152 211H265V212H152Z M50 212H117V213H50Z M152 212H266V213H152Z M50 213H116V214H50Z M152 213H266V214H152Z M50 214H116V215H50Z M152 214H266V215H152Z M50 215H115V216H50Z M152 215H266V216H152Z M50 216H115V217H50Z M152 216H266V217H152Z M50 217H114V218H50Z M152 217H266V218H152Z M50 218H113V219H50Z M152 218H266V219H152Z M50 219H112V220H50Z M152 219H266V220H152Z M50 220H112V221H50Z M152 220H266V221H152Z M50 221H111V222H50Z M152 221H266V222H152Z M50 222H110V223H50Z M152 222H266V223H152Z M50 223H109V224H50Z M152 223H266V224H152Z M50 224H108V225H50Z M152 224H266V225H152Z M50 225H107V226H50Z M152 225H266V226H152Z M50 226H106V227H50Z M152 226H266V227H152Z M50 227H105V228H50Z M152 227H266V228H152Z M50 228H103V229H50Z M152 228H266V229H152Z M50 229H102V230H50Z M152 229H266V230H152Z M50 230H100V231H50Z M152 230H266V231H152Z M50 231H99V232H50Z M152 231H266V232H152Z M50 232H97V233H50Z M152 232H266V233H152Z M50 233H95V234H50Z M152 233H266V234H152Z M50 234H92V235H50Z M152 234H266V235H152Z M50 235H90V236H50Z M152 235H266V236H152Z M50 236H87V237H50Z M152 236H266V237H152Z M50 237H82V238H50Z M152 237H266V238H152Z M50 238H78V239H50Z M152 238H265V239H152Z M73 263H75V264H73Z M77 263H126V264H77Z M127 263H129V264H127Z M200 263H220V264H200Z M71 264H130V265H71Z M196 264H224V265H196Z M71 265H131V266H71Z M193 265H229V266H193Z M71 266H131V267H71Z M190 266H230V267H190Z M71 267H131V268H71Z M187 267H233V268H187Z M71 268H131V269H71Z M185 268H235V269H185Z M71 269H131V270H71Z M183 269H237V270H183Z M71 270H131V271H71Z M182 270H239V271H182Z M71 271H131V272H71Z M180 271H240V272H180Z M71 272H131V273H71Z M179 272H241V273H179Z M71 273H131V274H71Z M177 273H243V274H177Z M71 274H131V275H71Z M176 274H244V275H176Z M71 275H131V276H71Z M175 275H245V276H175Z M71 276H131V277H71Z M174 276H246V277H174Z M71 277H131V278H71Z M173 277H247V278H173Z M71 278H131V279H71Z M172 278H248V279H172Z M71 279H131V280H71Z M171 279H249V280H171Z M71 280H131V281H71Z M170 280H250V281H170Z M71 281H131V282H71Z M170 281H251V282H170Z M71 282H131V283H71Z M169 282H252V283H169Z M71 283H131V284H71Z M168 283H252V284H168Z M71 284H131V285H71Z M168 284H253V285H168Z M71 285H131V286H71Z M167 285H254V286H167Z M71 286H131V287H71Z M167 286H254V287H167Z M71 287H131V288H71Z M166 287H255V288H166Z M71 288H131V289H71Z M165 288H206V289H165Z M216 288H255V289H216Z M101 289H131V290H101Z M165 289H201V290H165Z M219 289H256V290H219Z M102 290H131V291H102Z M164 290H200V291H164Z M221 290H256V291H221Z M102 291H131V292H102Z M164 291H198V292H164Z M223 291H257V292H223Z M102 292H131V293H102Z M163 292H196V293H163Z M224 292H257V293H224Z M102 293H131V294H102Z M163 293H195V294H163Z M225 293H258V294H225Z M102 294H131V295H102Z M163 294H194V295H163Z M226 294H258V295H226Z M102 295H131V296H102Z M163 295H193V296H163Z M228 295H258V296H228Z M102 296H131V297H102Z M162 296H193V297H162Z M228 296H258V297H228Z M102 297H131V298H102Z M162 297H192V298H162Z M229 297H259V298H229Z M102 298H131V299H102Z M161 298H191V299H161Z M230 298H259V299H230Z M102 299H131V300H102Z M161 299H191V300H161Z M230 299H259V300H230Z M102 300H131V301H102Z M161 300H190V301H161Z M230 300H259V301H230Z M102 301H131V302H102Z M161 301H190V302H161Z M231 301H260V302H231Z M102 302H131V303H102Z M161 302H190V303H161Z M231 302H260V303H231Z M102 303H131V304H102Z M161 303H189V304H161Z M231 303H260V304H231Z M102 304H131V305H102Z M161 304H189V305H161Z M232 304H260V305H232Z M102 305H131V306H102Z M161 305H189V306H161Z M232 305H260V306H232Z M102 306H131V307H102Z M160 306H189V307H160Z M232 306H260V307H232Z M102 307H131V308H102Z M160 307H189V308H160Z M232 307H260V308H232Z M102 308H131V309H102Z M160 308H189V309H160Z M232 308H260V309H232Z M102 309H131V310H102Z M160 309H189V310H160Z M232 309H260V310H232Z M102 310H131V311H102Z M160 310H189V311H160Z M232 310H260V311H232Z M102 311H131V312H102Z M160 311H189V312H160Z M232 311H260V312H232Z M102 312H131V313H102Z M160 312H189V313H160Z M232 312H260V313H232Z M102 313H131V314H102Z M160 313H189V314H160Z M232 313H260V314H232Z M102 314H131V315H102Z M160 314H189V315H160Z M232 314H260V315H232Z M102 315H131V316H102Z M160 315H189V316H160Z M232 315H260V316H232Z M102 316H131V317H102Z M160 316H189V317H160Z M232 316H260V317H232Z M102 317H131V318H102Z M160 317H189V318H160Z M232 317H260V318H232Z M102 318H131V319H102Z M160 318H189V319H160Z M232 318H260V319H232Z M102 319H131V320H102Z M160 319H189V320H160Z M232 319H260V320H232Z M102 320H131V321H102Z M160 320H189V321H160Z M232 320H260V321H232Z M102 321H131V322H102Z M160 321H189V322H160Z M232 321H260V322H232Z M102 322H131V323H102Z M160 322H189V323H160Z M232 322H260V323H232Z M102 323H131V324H102Z M160 323H189V324H160Z M232 323H260V324H232Z M102 324H131V325H102Z M160 324H189V325H160Z M232 324H260V325H232Z M102 325H131V326H102Z M160 325H189V326H160Z M232 325H260V326H232Z M102 326H131V327H102Z M160 326H189V327H160Z M232 326H260V327H232Z M102 327H131V328H102Z M160 327H189V328H160Z M232 327H260V328H232Z M102 328H131V329H102Z M160 328H189V329H160Z M232 328H260V329H232Z M102 329H131V330H102Z M160 329H189V330H160Z M232 329H260V330H232Z M102 330H131V331H102Z M160 330H189V331H160Z M232 330H260V331H232Z M102 331H131V332H102Z M160 331H189V332H160Z M232 331H260V332H232Z M102 332H131V333H102Z M160 332H189V333H160Z M232 332H260V333H232Z M102 333H131V334H102Z M160 333H189V334H160Z M232 333H260V334H232Z M102 334H131V335H102Z M160 334H189V335H160Z M232 334H260V335H232Z M102 335H131V336H102Z M160 335H189V336H160Z M232 335H260V336H232Z M102 336H131V337H102Z M160 336H189V337H160Z M232 336H260V337H232Z M102 337H131V338H102Z M160 337H189V338H160Z M232 337H260V338H232Z M102 338H131V339H102Z M160 338H189V339H160Z M232 338H260V339H232Z M102 339H131V340H102Z M160 339H189V340H160Z M232 339H260V340H232Z M102 340H131V341H102Z M160 340H189V341H160Z M232 340H260V341H232Z M102 341H131V342H102Z M160 341H189V342H160Z M232 341H260V342H232Z M102 342H131V343H102Z M160 342H189V343H160Z M232 342H260V343H232Z M102 343H131V344H102Z M160 343H189V344H160Z M232 343H260V344H232Z M102 344H131V345H102Z M160 344H189V345H160Z M232 344H260V345H232Z M102 345H131V346H102Z M160 345H189V346H160Z M232 345H260V346H232Z M102 346H131V347H102Z M160 346H189V347H160Z M232 346H260V347H232Z M102 347H131V348H102Z M160 347H189V348H160Z M232 347H260V348H232Z M102 348H131V349H102Z M160 348H189V349H160Z M232 348H260V349H232Z M102 349H131V350H102Z M160 349H189V350H160Z M232 349H260V350H232Z M102 350H131V351H102Z M160 350H189V351H160Z M232 350H260V351H232Z M102 351H131V352H102Z M160 351H189V352H160Z M232 351H260V352H232Z M102 352H131V353H102Z M160 352H189V353H160Z M232 352H260V353H232Z M102 353H131V354H102Z M160 353H189V354H160Z M232 353H260V354H232Z M102 354H131V355H102Z M160 354H189V355H160Z M232 354H260V355H232Z M102 355H131V356H102Z M160 355H189V356H160Z M232 355H260V356H232Z M102 356H131V357H102Z M160 356H189V357H160Z M232 356H261V357H232Z M102 357H131V358H102Z M160 357H189V358H160Z M232 357H261V358H232Z M102 358H131V359H102Z M160 358H189V359H160Z M232 358H261V359H232Z M102 359H131V360H102Z M160 359H189V360H160Z M232 359H261V360H232Z M102 360H131V361H102Z M160 360H189V361H160Z M232 360H261V361H232Z M102 361H131V362H102Z M160 361H189V362H160Z M232 361H261V362H232Z M102 362H131V363H102Z M160 362H189V363H160Z M232 362H261V363H232Z M102 363H131V364H102Z M160 363H189V364H160Z M232 363H261V364H232Z M102 364H131V365H102Z M160 364H189V365H160Z M232 364H261V365H232Z M102 365H131V366H102Z M160 365H189V366H160Z M232 365H261V366H232Z M102 366H131V367H102Z M160 366H189V367H160Z M232 366H261V367H232Z M102 367H131V368H102Z M160 367H189V368H160Z M232 367H261V368H232Z M102 368H131V369H102Z M160 368H189V369H160Z M232 368H261V369H232Z M102 369H131V370H102Z M160 369H189V370H160Z M232 369H261V370H232Z M102 370H131V371H102Z M160 370H189V371H160Z M232 370H261V371H232Z M102 371H131V372H102Z M160 371H189V372H160Z M232 371H261V372H232Z M102 372H131V373H102Z M160 372H189V373H160Z M232 372H261V373H232Z M102 373H131V374H102Z M160 373H189V374H160Z M232 373H261V374H232Z M102 374H131V375H102Z M160 374H189V375H160Z M232 374H261V375H232Z M102 375H131V376H102Z M160 375H189V376H160Z M232 375H261V376H232Z M102 376H131V377H102Z M160 376H189V377H160Z M232 376H261V377H232Z M102 377H131V378H102Z M160 377H189V378H160Z M232 377H261V378H232Z M102 378H131V379H102Z M160 378H189V379H160Z M232 378H261V379H232Z M102 379H131V380H102Z M160 379H189V380H160Z M232 379H261V380H232Z M102 380H131V381H102Z M160 380H189V381H160Z M232 380H261V381H232Z M102 381H131V382H102Z M160 381H189V382H160Z M232 381H261V382H232Z M102 382H131V383H102Z M160 382H189V383H160Z M232 382H261V383H232Z M102 383H131V384H102Z M160 383H189V384H160Z M232 383H261V384H232Z M102 384H131V385H102Z M160 384H189V385H160Z M232 384H261V385H232Z M102 385H131V386H102Z M160 385H189V386H160Z M232 385H261V386H232Z M102 386H131V387H102Z M160 386H189V387H160Z M232 386H260V387H232Z M102 387H131V388H102Z M160 387H189V388H160Z M232 387H260V388H232Z M102 388H130V389H102Z M160 388H189V389H160Z M232 388H260V389H232Z M102 389H130V390H102Z M160 389H189V390H160Z M232 389H260V390H232Z M102 390H130V391H102Z M160 390H189V391H160Z M232 390H260V391H232Z M101 391H130V392H101Z M160 391H189V392H160Z M232 391H260V392H232Z M101 392H130V393H101Z M160 392H189V393H160Z M232 392H260V393H232Z M100 393H130V394H100Z M160 393H189V394H160Z M232 393H260V394H232Z M100 394H130V395H100Z M161 394H189V395H161Z M232 394H260V395H232Z M100 395H130V396H100Z M161 395H189V396H161Z M231 395H260V396H231Z M100 396H129V397H100Z M161 396H190V397H161Z M231 396H260V397H231Z M99 397H129V398H99Z M161 397H190V398H161Z M231 397H260V398H231Z M98 398H129V399H98Z M161 398H191V399H161Z M230 398H260V399H230Z M98 399H129V400H98Z M161 399H191V400H161Z M230 399H260V400H230Z M97 400H129V401H97Z M161 400H191V401H161Z M230 400H259V401H230Z M96 401H129V402H96Z M162 401H192V402H162Z M229 401H259V402H229Z M95 402H128V403H95Z M162 402H193V403H162Z M228 402H259V403H228Z M94 403H128V404H94Z M162 403H193V404H162Z M227 403H258V404H227Z M92 404H128V405H92Z M163 404H194V405H163Z M226 404H258V405H226Z M90 405H127V406H90Z M163 405H195V406H163Z M225 405H258V406H225Z M88 406H127V407H88Z M163 406H196V407H163Z M224 406H258V407H224Z M82 407H126V408H82Z M163 407H198V408H163Z M223 407H257V408H223Z M59 408H126V409H59Z M164 408H199V409H164Z M221 408H257V409H221Z M59 409H126V410H59Z M165 409H201V410H165Z M219 409H256V410H219Z M59 410H125V411H59Z M165 410H205V411H165Z M216 410H256V411H216Z M59 411H125V412H59Z M165 411H255V412H165Z M59 412H124V413H59Z M166 412H254V413H166Z M59 413H123V414H59Z M167 413H254V414H167Z M59 414H123V415H59Z M167 414H253V415H167Z M59 415H122V416H59Z M168 415H253V416H168Z M59 416H122V417H59Z M169 416H252V417H169Z M59 417H121V418H59Z M169 417H252V418H169Z M59 418H120V419H59Z M170 418H251V419H170Z M59 419H119V420H59Z M171 419H250V420H171Z M59 420H118V421H59Z M172 420H249V421H172Z M59 421H117V422H59Z M173 421H248V422H173Z M59 422H116V423H59Z M174 422H247V423H174Z M59 423H115V424H59Z M175 423H246V424H175Z M59 424H114V425H59Z M176 424H245V425H176Z M59 425H112V426H59Z M177 425H244V426H177Z M59 426H111V427H59Z M178 426H243V427H178Z M59 427H109V428H59Z M180 427H241V428H180Z M59 428H108V429H59Z M181 428H240V429H181Z M59 429H106V430H59Z M182 429H238V430H182Z M59 430H104V431H59Z M184 430H237V431H184Z M59 431H101V432H59Z M186 431H234V432H186Z M59 432H99V433H59Z M189 432H232V433H189Z M59 433H96V434H59Z M191 433H230V434H191Z M59 434H92V435H59Z M194 434H226V435H194Z M59 435H88V436H59Z M197 435H223V436H197Z M204 436H216V437H204Z"/>
  <path fill="#8a5035" d="M198 59H211V60H198Z M191 60H218V61H191Z M59 61H115V62H59Z M187 61H222V62H187Z M57 62H117V63H57Z M184 62H225V63H184Z M57 63H117V64H57Z M181 63H228V64H181Z M57 64H117V65H57Z M179 64H230V65H179Z M57 65H117V66H57Z M177 65H232V66H177Z M57 66H117V67H57Z M175 66H234V67H175Z M57 67H117V68H57Z M173 67H236V68H173Z M57 68H117V69H57Z M172 68H238V69H172Z M57 69H117V70H57Z M170 69H240V70H170Z M57 70H117V71H57Z M169 70H241V71H169Z M57 71H117V72H57Z M167 71H242V72H167Z M57 72H117V73H57Z M166 72H243V73H166Z M57 73H117V74H57Z M165 73H245V74H165Z M57 74H117V75H57Z M164 74H246V75H164Z M57 75H117V76H57Z M162 75H247V76H162Z M57 76H117V77H57Z M161 76H248V77H161Z M57 77H117V78H57Z M160 77H249V78H160Z M57 78H117V79H57Z M159 78H250V79H159Z M57 79H117V80H57Z M158 79H251V80H158Z M57 80H117V81H57Z M157 80H252V81H157Z M57 81H117V82H57Z M156 81H253V82H156Z M57 82H117V83H57Z M156 82H254V83H156Z M57 83H117V84H57Z M155 83H255V84H155Z M57 84H117V85H57Z M154 84H256V85H154Z M57 85H117V86H57Z M153 85H256V86H153Z M58 86H117V87H58Z M152 86H257V87H152Z M87 87H117V88H87Z M151 87H200V88H151Z M209 87H258V88H209Z M88 88H117V89H88Z M151 88H196V89H151Z M213 88H258V89H213Z M88 89H117V90H88Z M150 89H192V90H150Z M217 89H259V90H217Z M88 90H117V91H88Z M150 90H190V91H150Z M219 90H260V91H219Z M88 91H117V92H88Z M149 91H188V92H149Z M222 91H260V92H222Z M88 92H117V93H88Z M149 92H186V93H149Z M223 92H261V93H223Z M88 93H117V94H88Z M148 93H184V94H148Z M225 93H261V94H225Z M88 94H117V95H88Z M148 94H183V95H148Z M226 94H262V95H226Z M88 95H117V96H88Z M147 95H182V96H147Z M227 95H262V96H227Z M88 96H117V97H88Z M147 96H181V97H147Z M229 96H263V97H229Z M88 97H117V98H88Z M146 97H180V98H146Z M230 97H263V98H230Z M88 98H117V99H88Z M146 98H179V99H146Z M231 98H264V99H231Z M88 99H117V100H88Z M145 99H178V100H145Z M232 99H264V100H232Z M88 100H117V101H88Z M145 100H177V101H145Z M232 100H264V101H232Z M88 101H117V102H88Z M145 101H176V102H145Z M233 101H265V102H233Z M88 102H117V103H88Z M144 102H175V103H144Z M234 102H265V103H234Z M88 103H117V104H88Z M144 103H175V104H144Z M235 103H266V104H235Z M88 104H117V105H88Z M143 104H174V105H143Z M235 104H266V105H235Z M88 105H117V106H88Z M143 105H174V106H143Z M236 105H266V106H236Z M88 106H117V107H88Z M143 106H173V107H143Z M236 106H266V107H236Z M88 107H117V108H88Z M143 107H173V108H143Z M237 107H267V108H237Z M88 108H117V109H88Z M143 108H172V109H143Z M237 108H267V109H237Z M88 109H117V110H88Z M142 109H171V110H142Z M238 109H267V110H238Z M88 110H117V111H88Z M142 110H171V111H142Z M238 110H267V111H238Z M88 111H117V112H88Z M142 111H171V112H142Z M238 111H268V112H238Z M88 112H117V113H88Z M141 112H171V113H141Z M239 112H268V113H239Z M88 113H117V114H88Z M141 113H170V114H141Z M239 113H268V114H239Z M88 114H117V115H88Z M141 114H170V115H141Z M240 114H268V115H240Z M88 115H117V116H88Z M141 115H170V116H141Z M240 115H268V116H240Z M88 116H117V117H88Z M141 116H169V117H141Z M240 116H268V117H240Z M88 117H117V118H88Z M141 117H169V118H141Z M240 117H268V118H240Z M88 118H117V119H88Z M141 118H169V119H141Z M240 118H268V119H240Z M88 119H117V120H88Z M141 119H169V120H141Z M240 119H269V120H240Z M88 120H117V121H88Z M141 120H169V121H141Z M240 120H269V121H240Z M88 121H117V122H88Z M141 121H169V122H141Z M240 121H269V122H240Z M88 122H117V123H88Z M141 122H169V123H141Z M240 122H269V123H240Z M88 123H117V124H88Z M141 123H169V124H141Z M240 123H269V124H240Z M88 124H117V125H88Z M141 124H169V125H141Z M240 124H269V125H240Z M88 125H117V126H88Z M141 125H169V126H141Z M240 125H269V126H240Z M88 126H117V127H88Z M141 126H169V127H141Z M240 126H269V127H240Z M88 127H117V128H88Z M141 127H169V128H141Z M240 127H268V128H240Z M88 128H117V129H88Z M141 128H169V129H141Z M240 128H268V129H240Z M88 129H117V130H88Z M141 129H169V130H141Z M240 129H268V130H240Z M88 130H117V131H88Z M141 130H170V131H141Z M240 130H268V131H240Z M88 131H117V132H88Z M141 131H170V132H141Z M240 131H268V132H240Z M88 132H117V133H88Z M141 132H170V133H141Z M239 132H268V133H239Z M88 133H117V134H88Z M141 133H171V134H141Z M239 133H268V134H239Z M88 134H117V135H88Z M142 134H171V135H142Z M238 134H268V135H238Z M88 135H117V136H88Z M142 135H171V136H142Z M238 135H267V136H238Z M88 136H117V137H88Z M142 136H171V137H142Z M238 136H267V137H238Z M88 137H117V138H88Z M143 137H172V138H143Z M238 137H267V138H238Z M88 138H117V139H88Z M143 138H172V139H143Z M237 138H267V139H237Z M88 139H117V140H88Z M143 139H173V140H143Z M236 139H266V140H236Z M88 140H117V141H88Z M143 140H173V141H143Z M236 140H266V141H236Z M88 141H117V142H88Z M143 141H174V142H143Z M235 141H266V142H235Z M88 142H117V143H88Z M143 142H175V143H143Z M235 142H266V143H235Z M88 143H117V144H88Z M144 143H175V144H144Z M234 143H265V144H234Z M88 144H117V145H88Z M145 144H176V145H145Z M233 144H265V145H233Z M88 145H117V146H88Z M145 145H177V146H145Z M232 145H264V146H232Z M88 146H117V147H88Z M145 146H178V147H145Z M232 146H264V147H232Z M88 147H117V148H88Z M145 147H178V148H145Z M231 147H264V148H231Z M88 148H117V149H88Z M146 148H179V149H146Z M230 148H263V149H230Z M88 149H117V150H88Z M147 149H180V150H147Z M229 149H263V150H229Z M88 150H117V151H88Z M147 150H182V151H147Z M228 150H262V151H228Z M88 151H117V152H88Z M147 151H183V152H147Z M226 151H262V152H226Z M88 152H117V153H88Z M148 152H184V153H148Z M225 152H261V153H225Z M88 153H117V154H88Z M148 153H186V154H148Z M223 153H261V154H223Z M88 154H117V155H88Z M149 154H188V155H149Z M222 154H260V155H222Z M88 155H117V156H88Z M150 155H189V156H150Z M220 155H260V156H220Z M88 156H117V157H88Z M150 156H193V157H150Z M217 156H259V157H217Z M88 157H117V158H88Z M151 157H195V158H151Z M215 157H258V158H215Z M88 158H117V159H88Z M151 158H203V159H151Z M206 158H258V159H206Z M88 159H117V160H88Z M152 159H257V160H152Z M88 160H117V161H88Z M153 160H256V161H153Z M88 161H117V162H88Z M154 161H255V162H154Z M88 162H117V163H88Z M155 162H255V163H155Z M88 163H117V164H88Z M156 163H254V164H156Z M88 164H117V165H88Z M156 164H253V165H156Z M88 165H117V166H88Z M157 165H252V166H157Z M88 166H117V167H88Z M158 166H251V167H158Z M88 167H117V168H88Z M159 167H250V168H159Z M88 168H117V169H88Z M160 168H249V169H160Z M88 169H117V170H88Z M161 169H248V170H161Z M88 170H117V171H88Z M162 170H247V171H162Z M88 171H117V172H88Z M163 171H246V172H163Z M88 172H117V173H88Z M164 172H245V173H164Z M88 173H117V174H88Z M166 173H243V174H166Z M88 174H117V175H88Z M167 174H242V175H167Z M88 175H117V176H88Z M168 175H241V176H168Z M88 176H117V177H88Z M170 176H240V177H170Z M88 177H117V178H88Z M171 177H238V178H171Z M88 178H117V179H88Z M173 178H236V179H173Z M88 179H117V180H88Z M175 179H235V180H175Z M88 180H117V181H88Z M177 180H232V181H177Z M88 181H117V182H88Z M178 181H231V182H178Z M88 182H117V183H88Z M181 182H228V183H181Z M88 183H117V184H88Z M184 183H226V184H184Z M88 184H117V185H88Z M187 184H222V185H187Z M88 185H117V186H88Z M190 185H219V186H190Z M88 186H117V187H88Z M197 186H212V187H197Z M88 187H117V188H88Z M88 188H117V189H88Z M87 189H117V190H87Z M87 190H116V191H87Z M87 191H116V192H87Z M86 192H116V193H86Z M86 193H116V194H86Z M86 194H116V195H86Z M85 195H115V196H85Z M84 196H115V197H84Z M84 197H115V198H84Z M83 198H115V199H83Z M82 199H115V200H82Z M81 200H115V201H81Z M80 201H114V202H80Z M79 202H114V203H79Z M76 203H113V204H76Z M74 204H113V205H74Z M65 205H113V206H65Z M45 206H112V207H45Z M147 206H260V207H147Z M45 207H112V208H45Z M147 207H261V208H147Z M45 208H111V209H45Z M147 208H261V209H147Z M45 209H111V210H45Z M147 209H261V210H147Z M45 210H110V211H45Z M147 210H261V211H147Z M45 211H110V212H45Z M147 211H261V212H147Z M45 212H109V213H45Z M147 212H261V213H147Z M45 213H108V214H45Z M147 213H261V214H147Z M45 214H107V215H45Z M147 214H261V215H147Z M45 215H107V216H45Z M147 215H261V216H147Z M45 216H106V217H45Z M147 216H261V217H147Z M45 217H105V218H45Z M147 217H261V218H147Z M45 218H104V219H45Z M147 218H261V219H147Z M45 219H103V220H45Z M147 219H261V220H147Z M45 220H102V221H45Z M147 220H261V221H147Z M45 221H101V222H45Z M147 221H261V222H147Z M45 222H100V223H45Z M147 222H261V223H147Z M45 223H98V224H45Z M147 223H261V224H147Z M45 224H97V225H45Z M147 224H261V225H147Z M45 225H95V226H45Z M147 225H261V226H147Z M45 226H94V227H45Z M147 226H261V227H147Z M45 227H92V228H45Z M147 227H261V228H147Z M45 228H90V229H45Z M147 228H261V229H147Z M45 229H87V230H45Z M147 229H261V230H147Z M45 230H85V231H45Z M147 230H261V231H147Z M45 231H82V232H45Z M147 231H261V232H147Z M45 232H77V233H45Z M147 232H261V233H147Z M45 233H73V234H45Z M147 233H260V234H147Z M68 258H70V259H68Z M72 258H121V259H72Z M122 258H124V259H122Z M195 258H215V259H195Z M66 259H125V260H66Z M191 259H219V260H191Z M66 260H126V261H66Z M188 260H224V261H188Z M66 261H126V262H66Z M185 261H225V262H185Z M66 262H126V263H66Z M182 262H228V263H182Z M66 263H126V264H66Z M180 263H230V264H180Z M66 264H126V265H66Z M178 264H232V265H178Z M66 265H126V266H66Z M177 265H234V266H177Z M66 266H126V267H66Z M175 266H235V267H175Z M66 267H126V268H66Z M174 267H236V268H174Z M66 268H126V269H66Z M172 268H238V269H172Z M66 269H126V270H66Z M171 269H239V270H171Z M66 270H126V271H66Z M170 270H240V271H170Z M66 271H126V272H66Z M169 271H241V272H169Z M66 272H126V273H66Z M168 272H242V273H168Z M66 273H126V274H66Z M167 273H243V274H167Z M66 274H126V275H66Z M166 274H244V275H166Z M66 275H126V276H66Z M165 275H245V276H165Z M66 276H126V277H66Z M165 276H246V277H165Z M66 277H126V278H66Z M164 277H247V278H164Z M66 278H126V279H66Z M163 278H247V279H163Z M66 279H126V280H66Z M163 279H248V280H163Z M66 280H126V281H66Z M162 280H249V281H162Z M66 281H126V282H66Z M162 281H249V282H162Z M66 282H126V283H66Z M161 282H250V283H161Z M66 283H126V284H66Z M160 283H201V284H160Z M211 283H250V284H211Z M96 284H126V285H96Z M160 284H196V285H160Z M214 284H251V285H214Z M97 285H126V286H97Z M159 285H195V286H159Z M216 285H251V286H216Z M97 286H126V287H97Z M159 286H193V287H159Z M218 286H252V287H218Z M97 287H126V288H97Z M158 287H191V288H158Z M219 287H252V288H219Z M97 288H126V289H97Z M158 288H190V289H158Z M220 288H253V289H220Z M97 289H126V290H97Z M158 289H189V290H158Z M221 289H253V290H221Z M97 290H126V291H97Z M158 290H188V291H158Z M223 290H253V291H223Z M97 291H126V292H97Z M157 291H188V292H157Z M223 291H253V292H223Z M97 292H126V293H97Z M157 292H187V293H157Z M224 292H254V293H224Z M97 293H126V294H97Z M156 293H186V294H156Z M225 293H254V294H225Z M97 294H126V295H97Z M156 294H186V295H156Z M225 294H254V295H225Z M97 295H126V296H97Z M156 295H185V296H156Z M225 295H254V296H225Z M97 296H126V297H97Z M156 296H185V297H156Z M226 296H255V297H226Z M97 297H126V298H97Z M156 297H185V298H156Z M226 297H255V298H226Z M97 298H126V299H97Z M156 298H184V299H156Z M226 298H255V299H226Z M97 299H126V300H97Z M156 299H184V300H156Z M227 299H255V300H227Z M97 300H126V301H97Z M156 300H184V301H156Z M227 300H255V301H227Z M97 301H126V302H97Z M155 301H184V302H155Z M227 301H255V302H227Z M97 302H126V303H97Z M155 302H184V303H155Z M227 302H255V303H227Z M97 303H126V304H97Z M155 303H184V304H155Z M227 303H255V304H227Z M97 304H126V305H97Z M155 304H184V305H155Z M227 304H255V305H227Z M97 305H126V306H97Z M155 305H184V306H155Z M227 305H255V306H227Z M97 306H126V307H97Z M155 306H184V307H155Z M227 306H255V307H227Z M97 307H126V308H97Z M155 307H184V308H155Z M227 307H255V308H227Z M97 308H126V309H97Z M155 308H184V309H155Z M227 308H255V309H227Z M97 309H126V310H97Z M155 309H184V310H155Z M227 309H255V310H227Z M97 310H126V311H97Z M155 310H184V311H155Z M227 310H255V311H227Z M97 311H126V312H97Z M155 311H184V312H155Z M227 311H255V312H227Z M97 312H126V313H97Z M155 312H184V313H155Z M227 312H255V313H227Z M97 313H126V314H97Z M155 313H184V314H155Z M227 313H255V314H227Z M97 314H126V315H97Z M155 314H184V315H155Z M227 314H255V315H227Z M97 315H126V316H97Z M155 315H184V316H155Z M227 315H255V316H227Z M97 316H126V317H97Z M155 316H184V317H155Z M227 316H255V317H227Z M97 317H126V318H97Z M155 317H184V318H155Z M227 317H255V318H227Z M97 318H126V319H97Z M155 318H184V319H155Z M227 318H255V319H227Z M97 319H126V320H97Z M155 319H184V320H155Z M227 319H255V320H227Z M97 320H126V321H97Z M155 320H184V321H155Z M227 320H255V321H227Z M97 321H126V322H97Z M155 321H184V322H155Z M227 321H255V322H227Z M97 322H126V323H97Z M155 322H184V323H155Z M227 322H255V323H227Z M97 323H126V324H97Z M155 323H184V324H155Z M227 323H255V324H227Z M97 324H126V325H97Z M155 324H184V325H155Z M227 324H255V325H227Z M97 325H126V326H97Z M155 325H184V326H155Z M227 325H255V326H227Z M97 326H126V327H97Z M155 326H184V327H155Z M227 326H255V327H227Z M97 327H126V328H97Z M155 327H184V328H155Z M227 327H255V328H227Z M97 328H126V329H97Z M155 328H184V329H155Z M227 328H255V329H227Z M97 329H126V330H97Z M155 329H184V330H155Z M227 329H255V330H227Z M97 330H126V331H97Z M155 330H184V331H155Z M227 330H255V331H227Z M97 331H126V332H97Z M155 331H184V332H155Z M227 331H255V332H227Z M97 332H126V333H97Z M155 332H184V333H155Z M227 332H255V333H227Z M97 333H126V334H97Z M155 333H184V334H155Z M227 333H255V334H227Z M97 334H126V335H97Z M155 334H184V335H155Z M227 334H255V335H227Z M97 335H126V336H97Z M155 335H184V336H155Z M227 335H255V336H227Z M97 336H126V337H97Z M155 336H184V337H155Z M227 336H255V337H227Z M97 337H126V338H97Z M155 337H184V338H155Z M227 337H255V338H227Z M97 338H126V339H97Z M155 338H184V339H155Z M227 338H255V339H227Z M97 339H126V340H97Z M155 339H184V340H155Z M227 339H255V340H227Z M97 340H126V341H97Z M155 340H184V341H155Z M227 340H255V341H227Z M97 341H126V342H97Z M155 341H184V342H155Z M227 341H255V342H227Z M97 342H126V343H97Z M155 342H184V343H155Z M227 342H255V343H227Z M97 343H126V344H97Z M155 343H184V344H155Z M227 343H255V344H227Z M97 344H126V345H97Z M155 344H184V345H155Z M227 344H255V345H227Z M97 345H126V346H97Z M155 345H184V346H155Z M227 345H255V346H227Z M97 346H126V347H97Z M155 346H184V347H155Z M227 346H255V347H227Z M97 347H126V348H97Z M155 347H184V348H155Z M227 347H255V348H227Z M97 348H126V349H97Z M155 348H184V349H155Z M227 348H255V349H227Z M97 349H126V350H97Z M155 349H184V350H155Z M227 349H255V350H227Z M97 350H126V351H97Z M155 350H184V351H155Z M227 350H255V351H227Z M97 351H126V352H97Z M155 351H184V352H155Z M227 351H256V352H227Z M97 352H126V353H97Z M155 352H184V353H155Z M227 352H256V353H227Z M97 353H126V354H97Z M155 353H184V354H155Z M227 353H256V354H227Z M97 354H126V355H97Z M155 354H184V355H155Z M227 354H256V355H227Z M97 355H126V356H97Z M155 355H184V356H155Z M227 355H256V356H227Z M97 356H126V357H97Z M155 356H184V357H155Z M227 356H256V357H227Z M97 357H126V358H97Z M155 357H184V358H155Z M227 357H256V358H227Z M97 358H126V359H97Z M155 358H184V359H155Z M227 358H256V359H227Z M97 359H126V360H97Z M155 359H184V360H155Z M227 359H256V360H227Z M97 360H126V361H97Z M155 360H184V361H155Z M227 360H256V361H227Z M97 361H126V362H97Z M155 361H184V362H155Z M227 361H256V362H227Z M97 362H126V363H97Z M155 362H184V363H155Z M227 362H256V363H227Z M97 363H126V364H97Z M155 363H184V364H155Z M227 363H256V364H227Z M97 364H126V365H97Z M155 364H184V365H155Z M227 364H256V365H227Z M97 365H126V366H97Z M155 365H184V366H155Z M227 365H256V366H227Z M97 366H126V367H97Z M155 366H184V367H155Z M227 366H256V367H227Z M97 367H126V368H97Z M155 367H184V368H155Z M227 367H256V368H227Z M97 368H126V369H97Z M155 368H184V369H155Z M227 368H256V369H227Z M97 369H126V370H97Z M155 369H184V370H155Z M227 369H256V370H227Z M97 370H126V371H97Z M155 370H184V371H155Z M227 370H256V371H227Z M97 371H126V372H97Z M155 371H184V372H155Z M227 371H256V372H227Z M97 372H126V373H97Z M155 372H184V373H155Z M227 372H256V373H227Z M97 373H126V374H97Z M155 373H184V374H155Z M227 373H256V374H227Z M97 374H126V375H97Z M155 374H184V375H155Z M227 374H256V375H227Z M97 375H126V376H97Z M155 375H184V376H155Z M227 375H256V376H227Z M97 376H126V377H97Z M155 376H184V377H155Z M227 376H256V377H227Z M97 377H126V378H97Z M155 377H184V378H155Z M227 377H256V378H227Z M97 378H126V379H97Z M155 378H184V379H155Z M227 378H256V379H227Z M97 379H126V380H97Z M155 379H184V380H155Z M227 379H256V380H227Z M97 380H126V381H97Z M155 380H184V381H155Z M227 380H256V381H227Z M97 381H126V382H97Z M155 381H184V382H155Z M227 381H255V382H227Z M97 382H126V383H97Z M155 382H184V383H155Z M227 382H255V383H227Z M97 383H125V384H97Z M155 383H184V384H155Z M227 383H255V384H227Z M97 384H125V385H97Z M155 384H184V385H155Z M227 384H255V385H227Z M97 385H125V386H97Z M155 385H184V386H155Z M227 385H255V386H227Z M96 386H125V387H96Z M155 386H184V387H155Z M227 386H255V387H227Z M96 387H125V388H96Z M155 387H184V388H155Z M227 387H255V388H227Z M95 388H125V389H95Z M155 388H184V389H155Z M227 388H255V389H227Z M95 389H125V390H95Z M156 389H184V390H156Z M227 389H255V390H227Z M95 390H125V391H95Z M156 390H184V391H156Z M226 390H255V391H226Z M95 391H124V392H95Z M156 391H185V392H156Z M226 391H255V392H226Z M94 392H124V393H94Z M156 392H185V393H156Z M226 392H255V393H226Z M93 393H124V394H93Z M156 393H186V394H156Z M225 393H255V394H225Z M93 394H124V395H93Z M156 394H186V395H156Z M225 394H255V395H225Z M92 395H124V396H92Z M156 395H186V396H156Z M225 395H254V396H225Z M91 396H124V397H91Z M157 396H187V397H157Z M224 396H254V397H224Z M90 397H123V398H90Z M157 397H188V398H157Z M223 397H254V398H223Z M89 398H123V399H89Z M157 398H188V399H157Z M222 398H253V399H222Z M87 399H123V400H87Z M158 399H189V400H158Z M221 399H253V400H221Z M85 400H122V401H85Z M158 400H190V401H158Z M220 400H253V401H220Z M83 401H122V402H83Z M158 401H191V402H158Z M219 401H253V402H219Z M77 402H121V403H77Z M158 402H193V403H158Z M218 402H252V403H218Z M54 403H121V404H54Z M159 403H194V404H159Z M216 403H252V404H216Z M54 404H121V405H54Z M160 404H196V405H160Z M214 404H251V405H214Z M54 405H120V406H54Z M160 405H200V406H160Z M211 405H251V406H211Z M54 406H120V407H54Z M160 406H250V407H160Z M54 407H119V408H54Z M161 407H249V408H161Z M54 408H118V409H54Z M162 408H249V409H162Z M54 409H118V410H54Z M162 409H248V410H162Z M54 410H117V411H54Z M163 410H248V411H163Z M54 411H117V412H54Z M164 411H247V412H164Z M54 412H116V413H54Z M164 412H247V413H164Z M54 413H115V414H54Z M165 413H246V414H165Z M54 414H114V415H54Z M166 414H245V415H166Z M54 415H113V416H54Z M167 415H244V416H167Z M54 416H112V417H54Z M168 416H243V417H168Z M54 417H111V418H54Z M169 417H242V418H169Z M54 418H110V419H54Z M170 418H241V419H170Z M54 419H109V420H54Z M171 419H240V420H171Z M54 420H107V421H54Z M172 420H239V421H172Z M54 421H106V422H54Z M173 421H238V422H173Z M54 422H104V423H54Z M175 422H236V423H175Z M54 423H103V424H54Z M176 423H235V424H176Z M54 424H101V425H54Z M177 424H233V425H177Z M54 425H99V426H54Z M179 425H232V426H179Z M54 426H96V427H54Z M181 426H229V427H181Z M54 427H94V428H54Z M184 427H227V428H184Z M54 428H91V429H54Z M186 428H225V429H186Z M54 429H87V430H54Z M189 429H221V430H189Z M54 430H83V431H54Z M192 430H218V431H192Z M199 431H211V432H199Z"/>
  <path fill="#c94a2e" d="M195 55H208V56H195Z M188 56H215V57H188Z M56 57H112V58H56Z M184 57H219V58H184Z M54 58H114V59H54Z M181 58H222V59H181Z M54 59H114V60H54Z M178 59H225V60H178Z M54 60H114V61H54Z M176 60H227V61H176Z M54 61H114V62H54Z M174 61H229V62H174Z M54 62H114V63H54Z M172 62H231V63H172Z M54 63H114V64H54Z M170 63H233V64H170Z M54 64H114V65H54Z M169 64H235V65H169Z M54 65H114V66H54Z M167 65H237V66H167Z M54 66H114V67H54Z M166 66H238V67H166Z M54 67H114V68H54Z M164 67H239V68H164Z M54 68H114V69H54Z M163 68H240V69H163Z M54 69H114V70H54Z M162 69H242V70H162Z M54 70H114V71H54Z M161 70H243V71H161Z M54 71H114V72H54Z M159 71H244V72H159Z M54 72H114V73H54Z M158 72H245V73H158Z M54 73H114V74H54Z M157 73H246V74H157Z M54 74H114V75H54Z M156 74H247V75H156Z M54 75H114V76H54Z M155 75H248V76H155Z M54 76H114V77H54Z M154 76H249V77H154Z M54 77H114V78H54Z M153 77H250V78H153Z M54 78H114V79H54Z M153 78H251V79H153Z M54 79H114V80H54Z M152 79H252V80H152Z M54 80H114V81H54Z M151 80H253V81H151Z M54 81H114V82H54Z M150 81H253V82H150Z M55 82H114V83H55Z M149 82H254V83H149Z M84 83H114V84H84Z M148 83H197V84H148Z M206 83H255V84H206Z M85 84H114V85H85Z M148 84H193V85H148Z M210 84H255V85H210Z M85 85H114V86H85Z M147 85H189V86H147Z M214 85H256V86H214Z M85 86H114V87H85Z M147 86H187V87H147Z M216 86H257V87H216Z M85 87H114V88H85Z M146 87H185V88H146Z M219 87H257V88H219Z M85 88H114V89H85Z M146 88H183V89H146Z M220 88H258V89H220Z M85 89H114V90H85Z M145 89H181V90H145Z M222 89H258V90H222Z M85 90H114V91H85Z M145 90H180V91H145Z M223 90H259V91H223Z M85 91H114V92H85Z M144 91H179V92H144Z M224 91H259V92H224Z M85 92H114V93H85Z M144 92H178V93H144Z M226 92H260V93H226Z M85 93H114V94H85Z M143 93H177V94H143Z M227 93H260V94H227Z M85 94H114V95H85Z M143 94H176V95H143Z M228 94H261V95H228Z M85 95H114V96H85Z M142 95H175V96H142Z M229 95H261V96H229Z M85 96H114V97H85Z M142 96H174V97H142Z M229 96H261V97H229Z M85 97H114V98H85Z M142 97H173V98H142Z M230 97H262V98H230Z M85 98H114V99H85Z M141 98H172V99H141Z M231 98H262V99H231Z M85 99H114V100H85Z M141 99H172V100H141Z M232 99H263V100H232Z M85 100H114V101H85Z M140 100H171V101H140Z M232 100H263V101H232Z M85 101H114V102H85Z M140 101H171V102H140Z M233 101H263V102H233Z M85 102H114V103H85Z M140 102H170V103H140Z M233 102H263V103H233Z M85 103H114V104H85Z M140 103H170V104H140Z M234 103H264V104H234Z M85 104H114V105H85Z M140 104H169V105H140Z M234 104H264V105H234Z M85 105H114V106H85Z M139 105H168V106H139Z M235 105H264V106H235Z M85 106H114V107H85Z M139 106H168V107H139Z M235 106H264V107H235Z M85 107H114V108H85Z M139 107H168V108H139Z M235 107H265V108H235Z M85 108H114V109H85Z M138 108H168V109H138Z M236 108H265V109H236Z M85 109H114V110H85Z M138 109H167V110H138Z M236 109H265V110H236Z M85 110H114V111H85Z M138 110H167V111H138Z M237 110H265V111H237Z M85 111H114V112H85Z M138 111H167V112H138Z M237 111H265V112H237Z M85 112H114V113H85Z M138 112H166V113H138Z M237 112H265V113H237Z M85 113H114V114H85Z M138 113H166V114H138Z M237 113H265V114H237Z M85 114H114V115H85Z M138 114H166V115H138Z M237 114H265V115H237Z M85 115H114V116H85Z M138 115H166V116H138Z M237 115H266V116H237Z M85 116H114V117H85Z M138 116H166V117H138Z M237 116H266V117H237Z M85 117H114V118H85Z M138 117H166V118H138Z M237 117H266V118H237Z M85 118H114V119H85Z M138 118H166V119H138Z M237 118H266V119H237Z M85 119H114V120H85Z M138 119H166V120H138Z M237 119H266V120H237Z M85 120H114V121H85Z M138 120H166V121H138Z M237 120H266V121H237Z M85 121H114V122H85Z M138 121H166V122H138Z M237 121H266V122H237Z M85 122H114V123H85Z M138 122H166V123H138Z M237 122H266V123H237Z M85 123H114V124H85Z M138 123H166V124H138Z M237 123H265V124H237Z M85 124H114V125H85Z M138 124H166V125H138Z M237 124H265V125H237Z M85 125H114V126H85Z M138 125H166V126H138Z M237 125H265V126H237Z M85 126H114V127H85Z M138 126H167V127H138Z M237 126H265V127H237Z M85 127H114V128H85Z M138 127H167V128H138Z M237 127H265V128H237Z M85 128H114V129H85Z M138 128H167V129H138Z M236 128H265V129H236Z M85 129H114V130H85Z M138 129H168V130H138Z M236 129H265V130H236Z M85 130H114V131H85Z M139 130H168V131H139Z M235 130H265V131H235Z M85 131H114V132H85Z M139 131H168V132H139Z M235 131H264V132H235Z M85 132H114V133H85Z M139 132H168V133H139Z M235 132H264V133H235Z M85 133H114V134H85Z M140 133H169V134H140Z M235 133H264V134H235Z M85 134H114V135H85Z M140 134H169V135H140Z M234 134H264V135H234Z M85 135H114V136H85Z M140 135H170V136H140Z M233 135H263V136H233Z M85 136H114V137H85Z M140 136H170V137H140Z M233 136H263V137H233Z M85 137H114V138H85Z M140 137H171V138H140Z M232 137H263V138H232Z M85 138H114V139H85Z M140 138H172V139H140Z M232 138H263V139H232Z M85 139H114V140H85Z M141 139H172V140H141Z M231 139H262V140H231Z M85 140H114V141H85Z M142 140H173V141H142Z M230 140H262V141H230Z M85 141H114V142H85Z M142 141H174V142H142Z M229 141H261V142H229Z M85 142H114V143H85Z M142 142H175V143H142Z M229 142H261V143H229Z M85 143H114V144H85Z M142 143H175V144H142Z M228 143H261V144H228Z M85 144H114V145H85Z M143 144H176V145H143Z M227 144H260V145H227Z M85 145H114V146H85Z M144 145H177V146H144Z M226 145H260V146H226Z M85 146H114V147H85Z M144 146H179V147H144Z M225 146H259V147H225Z M85 147H114V148H85Z M144 147H180V148H144Z M223 147H259V148H223Z M85 148H114V149H85Z M145 148H181V149H145Z M222 148H258V149H222Z M85 149H114V150H85Z M145 149H183V150H145Z M220 149H258V150H220Z M85 150H114V151H85Z M146 150H185V151H146Z M219 150H257V151H219Z M85 151H114V152H85Z M147 151H186V152H147Z M217 151H257V152H217Z M85 152H114V153H85Z M147 152H190V153H147Z M214 152H256V153H214Z M85 153H114V154H85Z M148 153H192V154H148Z M212 153H255V154H212Z M85 154H114V155H85Z M148 154H200V155H148Z M203 154H255V155H203Z M85 155H114V156H85Z M149 155H254V156H149Z M85 156H114V157H85Z M150 156H253V157H150Z M85 157H114V158H85Z M151 157H252V158H151Z M85 158H114V159H85Z M152 158H252V159H152Z M85 159H114V160H85Z M153 159H251V160H153Z M85 160H114V161H85Z M153 160H250V161H153Z M85 161H114V162H85Z M154 161H249V162H154Z M85 162H114V163H85Z M155 162H248V163H155Z M85 163H114V164H85Z M156 163H247V164H156Z M85 164H114V165H85Z M157 164H246V165H157Z M85 165H114V166H85Z M158 165H245V166H158Z M85 166H114V167H85Z M159 166H244V167H159Z M85 167H114V168H85Z M160 167H243V168H160Z M85 168H114V169H85Z M161 168H242V169H161Z M85 169H114V170H85Z M163 169H240V170H163Z M85 170H114V171H85Z M164 170H239V171H164Z M85 171H114V172H85Z M165 171H238V172H165Z M85 172H114V173H85Z M167 172H237V173H167Z M85 173H114V174H85Z M168 173H235V174H168Z M85 174H114V175H85Z M170 174H233V175H170Z M85 175H114V176H85Z M172 175H232V176H172Z M85 176H114V177H85Z M174 176H229V177H174Z M85 177H114V178H85Z M175 177H228V178H175Z M85 178H114V179H85Z M178 178H225V179H178Z M85 179H114V180H85Z M181 179H223V180H181Z M85 180H114V181H85Z M184 180H219V181H184Z M85 181H114V182H85Z M187 181H216V182H187Z M85 182H114V183H85Z M194 182H209V183H194Z M85 183H114V184H85Z M85 184H114V185H85Z M84 185H114V186H84Z M84 186H113V187H84Z M84 187H113V188H84Z M83 188H113V189H83Z M83 189H113V190H83Z M83 190H113V191H83Z M82 191H112V192H82Z M81 192H112V193H81Z M81 193H112V194H81Z M80 194H112V195H80Z M79 195H112V196H79Z M78 196H112V197H78Z M77 197H111V198H77Z M76 198H111V199H76Z M73 199H110V200H73Z M71 200H110V201H71Z M62 201H110V202H62Z M42 202H109V203H42Z M144 202H257V203H144Z M42 203H109V204H42Z M144 203H258V204H144Z M42 204H108V205H42Z M144 204H258V205H144Z M42 205H108V206H42Z M144 205H258V206H144Z M42 206H107V207H42Z M144 206H258V207H144Z M42 207H107V208H42Z M144 207H258V208H144Z M42 208H106V209H42Z M144 208H258V209H144Z M42 209H105V210H42Z M144 209H258V210H144Z M42 210H104V211H42Z M144 210H258V211H144Z M42 211H104V212H42Z M144 211H258V212H144Z M42 212H103V213H42Z M144 212H258V213H144Z M42 213H102V214H42Z M144 213H258V214H144Z M42 214H101V215H42Z M144 214H258V215H144Z M42 215H100V216H42Z M144 215H258V216H144Z M42 216H99V217H42Z M144 216H258V217H144Z M42 217H98V218H42Z M144 217H258V218H144Z M42 218H97V219H42Z M144 218H258V219H144Z M42 219H95V220H42Z M144 219H258V220H144Z M42 220H94V221H42Z M144 220H258V221H144Z M42 221H92V222H42Z M144 221H258V222H144Z M42 222H91V223H42Z M144 222H258V223H144Z M42 223H89V224H42Z M144 223H258V224H144Z M42 224H87V225H42Z M144 224H258V225H144Z M42 225H84V226H42Z M144 225H258V226H144Z M42 226H82V227H42Z M144 226H258V227H144Z M42 227H79V228H42Z M144 227H258V228H144Z M42 228H74V229H42Z M144 228H258V229H144Z M42 229H70V230H42Z M144 229H257V230H144Z M65 254H67V255H65Z M69 254H118V255H69Z M119 254H121V255H119Z M192 254H212V255H192Z M63 255H122V256H63Z M188 255H216V256H188Z M63 256H123V257H63Z M185 256H221V257H185Z M63 257H123V258H63Z M182 257H222V258H182Z M63 258H123V259H63Z M179 258H225V259H179Z M63 259H123V260H63Z M177 259H227V260H177Z M63 260H123V261H63Z M175 260H229V261H175Z M63 261H123V262H63Z M174 261H231V262H174Z M63 262H123V263H63Z M172 262H232V263H172Z M63 263H123V264H63Z M171 263H233V264H171Z M63 264H123V265H63Z M169 264H235V265H169Z M63 265H123V266H63Z M168 265H236V266H168Z M63 266H123V267H63Z M167 266H237V267H167Z M63 267H123V268H63Z M166 267H238V268H166Z M63 268H123V269H63Z M165 268H239V269H165Z M63 269H123V270H63Z M164 269H240V270H164Z M63 270H123V271H63Z M163 270H241V271H163Z M63 271H123V272H63Z M162 271H242V272H162Z M63 272H123V273H63Z M162 272H243V273H162Z M63 273H123V274H63Z M161 273H244V274H161Z M63 274H123V275H63Z M160 274H244V275H160Z M63 275H123V276H63Z M160 275H245V276H160Z M63 276H123V277H63Z M159 276H246V277H159Z M63 277H123V278H63Z M159 277H246V278H159Z M63 278H123V279H63Z M158 278H247V279H158Z M63 279H123V280H63Z M157 279H198V280H157Z M208 279H247V280H208Z M93 280H123V281H93Z M157 280H193V281H157Z M211 280H248V281H211Z M94 281H123V282H94Z M156 281H192V282H156Z M213 281H248V282H213Z M94 282H123V283H94Z M156 282H190V283H156Z M215 282H249V283H215Z M94 283H123V284H94Z M155 283H188V284H155Z M216 283H249V284H216Z M94 284H123V285H94Z M155 284H187V285H155Z M217 284H250V285H217Z M94 285H123V286H94Z M155 285H186V286H155Z M218 285H250V286H218Z M94 286H123V287H94Z M155 286H185V287H155Z M220 286H250V287H220Z M94 287H123V288H94Z M154 287H185V288H154Z M220 287H250V288H220Z M94 288H123V289H94Z M154 288H184V289H154Z M221 288H251V289H221Z M94 289H123V290H94Z M153 289H183V290H153Z M222 289H251V290H222Z M94 290H123V291H94Z M153 290H183V291H153Z M222 290H251V291H222Z M94 291H123V292H94Z M153 291H182V292H153Z M222 291H251V292H222Z M94 292H123V293H94Z M153 292H182V293H153Z M223 292H252V293H223Z M94 293H123V294H94Z M153 293H182V294H153Z M223 293H252V294H223Z M94 294H123V295H94Z M153 294H181V295H153Z M223 294H252V295H223Z M94 295H123V296H94Z M153 295H181V296H153Z M224 295H252V296H224Z M94 296H123V297H94Z M153 296H181V297H153Z M224 296H252V297H224Z M94 297H123V298H94Z M152 297H181V298H152Z M224 297H252V298H224Z M94 298H123V299H94Z M152 298H181V299H152Z M224 298H252V299H224Z M94 299H123V300H94Z M152 299H181V300H152Z M224 299H252V300H224Z M94 300H123V301H94Z M152 300H181V301H152Z M224 300H252V301H224Z M94 301H123V302H94Z M152 301H181V302H152Z M224 301H252V302H224Z M94 302H123V303H94Z M152 302H181V303H152Z M224 302H252V303H224Z M94 303H123V304H94Z M152 303H181V304H152Z M224 303H252V304H224Z M94 304H123V305H94Z M152 304H181V305H152Z M224 304H252V305H224Z M94 305H123V306H94Z M152 305H181V306H152Z M224 305H252V306H224Z M94 306H123V307H94Z M152 306H181V307H152Z M224 306H252V307H224Z M94 307H123V308H94Z M152 307H181V308H152Z M224 307H252V308H224Z M94 308H123V309H94Z M152 308H181V309H152Z M224 308H252V309H224Z M94 309H123V310H94Z M152 309H181V310H152Z M224 309H252V310H224Z M94 310H123V311H94Z M152 310H181V311H152Z M224 310H252V311H224Z M94 311H123V312H94Z M152 311H181V312H152Z M224 311H252V312H224Z M94 312H123V313H94Z M152 312H181V313H152Z M224 312H252V313H224Z M94 313H123V314H94Z M152 313H181V314H152Z M224 313H252V314H224Z M94 314H123V315H94Z M152 314H181V315H152Z M224 314H252V315H224Z M94 315H123V316H94Z M152 315H181V316H152Z M224 315H252V316H224Z M94 316H123V317H94Z M152 316H181V317H152Z M224 316H252V317H224Z M94 317H123V318H94Z M152 317H181V318H152Z M224 317H252V318H224Z M94 318H123V319H94Z M152 318H181V319H152Z M224 318H252V319H224Z M94 319H123V320H94Z M152 319H181V320H152Z M224 319H252V320H224Z M94 320H123V321H94Z M152 320H181V321H152Z M224 320H252V321H224Z M94 321H123V322H94Z M152 321H181V322H152Z M224 321H252V322H224Z M94 322H123V323H94Z M152 322H181V323H152Z M224 322H252V323H224Z M94 323H123V324H94Z M152 323H181V324H152Z M224 323H252V324H224Z M94 324H123V325H94Z M152 324H181V325H152Z M224 324H252V325H224Z M94 325H123V326H94Z M152 325H181V326H152Z M224 325H252V326H224Z M94 326H123V327H94Z M152 326H181V327H152Z M224 326H252V327H224Z M94 327H123V328H94Z M152 327H181V328H152Z M224 327H252V328H224Z M94 328H123V329H94Z M152 328H181V329H152Z M224 328H252V329H224Z M94 329H123V330H94Z M152 329H181V330H152Z M224 329H252V330H224Z M94 330H123V331H94Z M152 330H181V331H152Z M224 330H252V331H224Z M94 331H123V332H94Z M152 331H181V332H152Z M224 331H252V332H224Z M94 332H123V333H94Z M152 332H181V333H152Z M224 332H252V333H224Z M94 333H123V334H94Z M152 333H181V334H152Z M224 333H252V334H224Z M94 334H123V335H94Z M152 334H181V335H152Z M224 334H252V335H224Z M94 335H123V336H94Z M152 335H181V336H152Z M224 335H252V336H224Z M94 336H123V337H94Z M152 336H181V337H152Z M224 336H252V337H224Z M94 337H123V338H94Z M152 337H181V338H152Z M224 337H252V338H224Z M94 338H123V339H94Z M152 338H181V339H152Z M224 338H252V339H224Z M94 339H123V340H94Z M152 339H181V340H152Z M224 339H252V340H224Z M94 340H123V341H94Z M152 340H181V341H152Z M224 340H252V341H224Z M94 341H123V342H94Z M152 341H181V342H152Z M224 341H252V342H224Z M94 342H123V343H94Z M152 342H181V343H152Z M224 342H252V343H224Z M94 343H123V344H94Z M152 343H181V344H152Z M224 343H252V344H224Z M94 344H123V345H94Z M152 344H181V345H152Z M224 344H252V345H224Z M94 345H123V346H94Z M152 345H181V346H152Z M224 345H252V346H224Z M94 346H123V347H94Z M152 346H181V347H152Z M224 346H252V347H224Z M94 347H123V348H94Z M152 347H181V348H152Z M224 347H253V348H224Z M94 348H123V349H94Z M152 348H181V349H152Z M224 348H253V349H224Z M94 349H123V350H94Z M152 349H181V350H152Z M224 349H253V350H224Z M94 350H123V351H94Z M152 350H181V351H152Z M224 350H253V351H224Z M94 351H123V352H94Z M152 351H181V352H152Z M224 351H253V352H224Z M94 352H123V353H94Z M152 352H181V353H152Z M224 352H253V353H224Z M94 353H123V354H94Z M152 353H181V354H152Z M224 353H253V354H224Z M94 354H123V355H94Z M152 354H181V355H152Z M224 354H253V355H224Z M94 355H123V356H94Z M152 355H181V356H152Z M224 355H253V356H224Z M94 356H123V357H94Z M152 356H181V357H152Z M224 356H253V357H224Z M94 357H123V358H94Z M152 357H181V358H152Z M224 357H253V358H224Z M94 358H123V359H94Z M152 358H181V359H152Z M224 358H253V359H224Z M94 359H123V360H94Z M152 359H181V360H152Z M224 359H253V360H224Z M94 360H123V361H94Z M152 360H181V361H152Z M224 360H253V361H224Z M94 361H123V362H94Z M152 361H181V362H152Z M224 361H253V362H224Z M94 362H123V363H94Z M152 362H181V363H152Z M224 362H253V363H224Z M94 363H123V364H94Z M152 363H181V364H152Z M224 363H253V364H224Z M94 364H123V365H94Z M152 364H181V365H152Z M224 364H253V365H224Z M94 365H123V366H94Z M152 365H181V366H152Z M224 365H253V366H224Z M94 366H123V367H94Z M152 366H181V367H152Z M224 366H253V367H224Z M94 367H123V368H94Z M152 367H181V368H152Z M224 367H253V368H224Z M94 368H123V369H94Z M152 368H181V369H152Z M224 368H253V369H224Z M94 369H123V370H94Z M152 369H181V370H152Z M224 369H253V370H224Z M94 370H123V371H94Z M152 370H181V371H152Z M224 370H253V371H224Z M94 371H123V372H94Z M152 371H181V372H152Z M224 371H253V372H224Z M94 372H123V373H94Z M152 372H181V373H152Z M224 372H253V373H224Z M94 373H123V374H94Z M152 373H181V374H152Z M224 373H253V374H224Z M94 374H123V375H94Z M152 374H181V375H152Z M224 374H253V375H224Z M94 375H123V376H94Z M152 375H181V376H152Z M224 375H253V376H224Z M94 376H123V377H94Z M152 376H181V377H152Z M224 376H253V377H224Z M94 377H123V378H94Z M152 377H181V378H152Z M224 377H252V378H224Z M94 378H123V379H94Z M152 378H181V379H152Z M224 378H252V379H224Z M94 379H122V380H94Z M152 379H181V380H152Z M224 379H252V380H224Z M94 380H122V381H94Z M152 380H181V381H152Z M224 380H252V381H224Z M94 381H122V382H94Z M152 381H181V382H152Z M224 381H252V382H224Z M93 382H122V383H93Z M152 382H181V383H152Z M224 382H252V383H224Z M93 383H122V384H93Z M152 383H181V384H152Z M224 383H252V384H224Z M92 384H122V385H92Z M152 384H181V385H152Z M224 384H252V385H224Z M92 385H122V386H92Z M153 385H181V386H153Z M224 385H252V386H224Z M92 386H122V387H92Z M153 386H181V387H153Z M223 386H252V387H223Z M92 387H121V388H92Z M153 387H182V388H153Z M223 387H252V388H223Z M91 388H121V389H91Z M153 388H182V389H153Z M223 388H252V389H223Z M90 389H121V390H90Z M153 389H183V390H153Z M222 389H252V390H222Z M90 390H121V391H90Z M153 390H183V391H153Z M222 390H252V391H222Z M89 391H121V392H89Z M153 391H183V392H153Z M222 391H251V392H222Z M88 392H121V393H88Z M154 392H184V393H154Z M221 392H251V393H221Z M87 393H120V394H87Z M154 393H185V394H154Z M220 393H251V394H220Z M86 394H120V395H86Z M154 394H185V395H154Z M219 394H250V395H219Z M84 395H120V396H84Z M155 395H186V396H155Z M218 395H250V396H218Z M82 396H119V397H82Z M155 396H187V397H155Z M217 396H250V397H217Z M80 397H119V398H80Z M155 397H188V398H155Z M216 397H250V398H216Z M74 398H118V399H74Z M155 398H190V399H155Z M215 398H249V399H215Z M51 399H118V400H51Z M156 399H191V400H156Z M213 399H249V400H213Z M51 400H118V401H51Z M157 400H193V401H157Z M211 400H248V401H211Z M51 401H117V402H51Z M157 401H197V402H157Z M208 401H248V402H208Z M51 402H117V403H51Z M157 402H247V403H157Z M51 403H116V404H51Z M158 403H246V404H158Z M51 404H115V405H51Z M159 404H246V405H159Z M51 405H115V406H51Z M159 405H245V406H159Z M51 406H114V407H51Z M160 406H245V407H160Z M51 407H114V408H51Z M161 407H244V408H161Z M51 408H113V409H51Z M161 408H244V409H161Z M51 409H112V410H51Z M162 409H243V410H162Z M51 410H111V411H51Z M163 410H242V411H163Z M51 411H110V412H51Z M164 411H241V412H164Z M51 412H109V413H51Z M165 412H240V413H165Z M51 413H108V414H51Z M166 413H239V414H166Z M51 414H107V415H51Z M167 414H238V415H167Z M51 415H106V416H51Z M168 415H237V416H168Z M51 416H104V417H51Z M169 416H236V417H169Z M51 417H103V418H51Z M170 417H235V418H170Z M51 418H101V419H51Z M172 418H233V419H172Z M51 419H100V420H51Z M173 419H232V420H173Z M51 420H98V421H51Z M174 420H230V421H174Z M51 421H96V422H51Z M176 421H229V422H176Z M51 422H93V423H51Z M178 422H226V423H178Z M51 423H91V424H51Z M181 423H224V424H181Z M51 424H88V425H51Z M183 424H222V425H183Z M51 425H84V426H51Z M186 425H218V426H186Z M51 426H80V427H51Z M189 426H215V427H189Z M196 427H208V428H196Z"/>
</svg>
